<?xml version="1.0" standalone="no"?>
<!DOCTYPE svg PUBLIC "-//W3C//DTD SVG 20010904//EN"
 "http://www.w3.org/TR/2001/REC-SVG-20010904/DTD/svg10.dtd">
<svg version="1.0" xmlns="http://www.w3.org/2000/svg"
 width="920.000000pt" height="845.000000pt" viewBox="0 0 920.000000 845.000000"
 preserveAspectRatio="xMidYMid meet">

<g transform="translate(0.000000,845.000000) scale(0.100000,-0.100000)"
fill="#000000" stroke="none">
<path d="M6728 8441 c-24 -5 -58 -26 -92 -57 -30 -27 -80 -71 -111 -98 -31
-28 -75 -78 -96 -112 -22 -33 -68 -88 -103 -121 -47 -43 -75 -81 -104 -139
-22 -43 -65 -107 -94 -141 -57 -65 -63 -75 -127 -213 -24 -54 -63 -114 -105
-163 -65 -76 -80 -110 -102 -217 -10 -53 -26 -78 -107 -168 -64 -70 -87 -107
-151 -235 -41 -84 -94 -179 -118 -212 -77 -105 -109 -165 -211 -390 -135 -300
-129 -282 -121 -390 4 -64 2 -125 -10 -206 -13 -90 -15 -126 -6 -164 6 -26 9
-49 7 -52 -6 -5 -250 54 -347 85 -47 14 -144 56 -215 93 -213 110 -283 120
-409 61 -109 -51 -713 -473 -1065 -743 l-74 -57 -51 24 c-28 13 -56 24 -62 24
-6 0 -23 9 -37 20 -37 29 -53 17 -70 -53 -8 -34 -33 -106 -54 -159 l-38 -97
-175 -142 c-170 -138 -237 -196 -487 -424 -66 -60 -154 -138 -195 -172 l-75
-62 -7 46 c-3 25 -6 87 -6 138 l0 91 62 0 c86 -1 217 52 270 109 146 157 165
183 183 246 9 35 50 127 90 204 77 151 99 220 115 374 6 51 16 114 22 140 7
25 12 107 13 181 0 74 7 174 15 223 12 76 12 98 0 175 -10 57 -15 168 -16 322
-1 189 -4 244 -17 280 -9 24 -14 54 -11 66 3 11 -6 110 -20 220 -24 189 -29
210 -96 408 -105 313 -130 360 -248 476 -67 65 -109 115 -132 158 -55 104
-194 221 -297 250 -79 22 -274 22 -367 -1 -58 -15 -78 -16 -128 -6 -65 13
-182 2 -288 -28 -51 -14 -150 -75 -150 -93 0 -4 -45 -55 -99 -113 -108 -114
-135 -156 -145 -229 -5 -32 -23 -71 -57 -123 -67 -101 -80 -141 -88 -267 -7
-99 -9 -110 -44 -166 -56 -91 -69 -135 -77 -267 -5 -97 -13 -138 -40 -215 -30
-87 -32 -100 -25 -170 14 -137 10 -211 -13 -295 -22 -78 -22 -83 -7 -183 19
-130 19 -180 -1 -283 -25 -127 -23 -208 8 -324 15 -55 30 -138 33 -185 10
-112 23 -153 78 -238 26 -40 55 -103 67 -144 30 -103 60 -148 127 -195 32 -23
78 -62 103 -87 36 -38 58 -51 115 -67 38 -12 85 -33 104 -47 88 -70 92 -72
164 -72 39 0 80 -6 96 -14 15 -8 72 -19 126 -25 54 -7 100 -13 102 -14 3 -3
19 -252 28 -438 l7 -125 -208 -150 c-300 -216 -338 -242 -556 -381 -109 -68
-221 -145 -248 -170 -52 -47 -90 -107 -90 -142 0 -33 64 -59 219 -86 42 -8
101 -21 131 -30 50 -14 91 -14 485 0 237 8 490 18 562 21 73 4 133 3 133 -1 0
-18 -232 -324 -278 -367 -48 -45 -141 -98 -242 -138 -54 -21 -100 -14 -100 15
0 9 -6 18 -14 21 -7 3 -26 36 -41 75 -33 80 -42 83 -127 46 -71 -32 -83 -47
-69 -89 16 -47 171 -251 203 -266 18 -8 34 -9 51 -3 27 10 52 60 44 88 -3 10
-8 27 -11 39 -7 23 19 37 124 69 30 10 83 32 116 50 60 32 63 33 135 25 41 -5
86 -13 101 -19 15 -6 74 -22 130 -36 213 -52 547 -164 928 -310 118 -46 296
-106 395 -135 99 -28 315 -96 480 -150 165 -54 337 -108 382 -120 106 -26 296
-91 353 -120 60 -30 210 -184 210 -215 0 -13 -16 -65 -35 -115 -19 -50 -35
-98 -35 -106 0 -24 -17 -16 -24 11 -14 56 -99 55 -173 -1 -38 -29 -43 -62 -17
-122 9 -20 16 -58 17 -84 1 -27 5 -48 8 -48 4 0 9 -12 12 -27 7 -36 42 -73 68
-73 34 0 77 32 95 68 9 19 20 78 25 131 10 113 16 139 55 249 18 52 35 84 47
88 9 3 17 11 17 17 0 12 98 81 230 160 93 57 197 88 670 201 195 47 486 116
645 155 160 39 331 77 380 85 132 23 483 47 525 37 19 -5 86 -32 148 -60 62
-28 137 -59 167 -68 54 -17 55 -18 55 -54 0 -45 23 -72 54 -63 36 11 65 33 80
62 24 46 56 176 56 225 0 57 -16 68 -111 75 -85 6 -99 -9 -88 -90 4 -29 8 -70
8 -90 l1 -37 -62 18 c-35 10 -90 30 -124 44 -33 14 -82 31 -109 38 -28 7 -49
19 -52 28 -2 9 -35 35 -73 59 -38 24 -94 66 -125 93 -87 81 -199 259 -290 466
l-25 56 127 -6 c71 -4 211 -7 311 -7 109 0 182 -4 180 -9 -1 -5 -28 -36 -58
-68 -177 -187 -180 -193 -143 -249 19 -30 109 -84 138 -84 13 0 52 32 100 79
43 44 83 77 87 75 4 -3 8 -20 8 -39 0 -95 36 -114 165 -89 50 9 102 23 117 30
46 24 44 85 -6 183 -9 17 -15 31 -12 31 7 0 230 -141 248 -157 29 -26 103 -43
142 -32 72 20 126 87 126 157 0 36 -5 43 -61 87 -33 26 -82 56 -107 66 -36 14
-41 18 -22 19 14 0 61 2 105 5 44 3 179 10 300 15 234 12 322 23 367 46 40 21
68 54 68 81 0 17 6 23 21 23 33 0 117 40 132 64 41 62 27 135 -36 193 -62 57
-146 112 -313 204 -348 192 -532 347 -917 774 -100 110 -228 248 -285 306
l-103 106 -9 94 c-12 115 -12 180 -2 196 4 6 66 21 137 33 228 37 226 37 285
85 30 25 73 50 95 56 81 22 125 41 162 71 21 16 61 41 88 55 72 36 216 123
244 147 28 25 157 214 172 254 12 29 26 186 35 392 7 145 -2 194 -65 342 -22
51 -48 131 -59 178 -48 212 -123 445 -182 562 -47 93 -63 135 -76 210 -20 113
-42 159 -128 271 -54 72 -70 102 -91 174 -38 126 -57 170 -103 241 -29 45 -46
87 -58 140 -21 96 -31 115 -99 194 -37 43 -64 85 -82 133 -36 96 -43 104 -125
150 -64 36 -78 49 -113 107 -53 88 -68 103 -145 146 -36 20 -87 51 -113 70
-40 29 -58 35 -110 38 -34 1 -79 -1 -99 -5z m-3756 -3694 c152 -82 430 -215
588 -280 326 -135 914 -306 1200 -351 288 -45 772 -71 990 -53 52 4 90 4 84 0
-41 -29 -149 -248 -379 -773 -57 -129 -145 -320 -197 -425 -51 -104 -150 -320
-218 -480 -69 -159 -202 -445 -296 -635 -147 -297 -198 -407 -227 -492 -6 -16
-8 -16 -31 5 -32 30 -93 51 -271 91 -152 35 -358 94 -424 122 -20 9 -90 35
-156 59 -66 24 -174 65 -240 90 -207 80 -628 229 -946 333 -292 96 -484 144
-674 167 -27 3 -80 11 -117 17 l-67 11 21 30 c12 16 66 80 120 141 127 142
180 222 248 371 61 135 202 409 339 655 155 279 258 501 319 690 12 36 42 153
67 260 25 107 48 200 51 205 10 24 -9 -179 -27 -280 -50 -278 -118 -491 -320
-1001 -65 -166 -119 -306 -119 -312 0 -13 33 -24 51 -17 8 3 51 104 97 224
262 689 343 1016 343 1374 0 87 4 195 9 240 6 53 6 83 0 85 -6 2 -10 7 -10 12
0 13 75 -20 192 -83z m-205 11 c-3 -8 -6 -5 -6 6 -1 11 2 17 5 13 3 -3 4 -12
1 -19z m-30 -100 c-3 -8 -6 -5 -6 6 -1 11 2 17 5 13 3 -3 4 -12 1 -19z m-20
-70 c-3 -8 -6 -5 -6 6 -1 11 2 17 5 13 3 -3 4 -12 1 -19z m-10 -50 c-3 -7 -5
-2 -5 12 0 14 2 19 5 13 2 -7 2 -19 0 -25z m-10 -40 c-3 -8 -6 -5 -6 6 -1 11
2 17 5 13 3 -3 4 -12 1 -19z m-10 -40 c-3 -8 -6 -5 -6 6 -1 11 2 17 5 13 3 -3
4 -12 1 -19z m-30 -120 c-3 -8 -6 -5 -6 6 -1 11 2 17 5 13 3 -3 4 -12 1 -19z
m-76 -225 c-12 -20 -14 -14 -5 12 4 9 9 14 11 11 3 -2 0 -13 -6 -23z m-30 -80
c-12 -20 -14 -14 -5 12 4 9 9 14 11 11 3 -2 0 -13 -6 -23z m3299 -43 c-4 -25
-8 -34 -9 -21 -1 24 -1 24 -17 5 -8 -10 -5 0 8 23 12 23 23 41 24 40 1 -1 -2
-22 -6 -47z m-3319 -7 c-12 -20 -14 -14 -5 12 4 9 9 14 11 11 3 -2 0 -13 -6
-23z m-20 -50 c-12 -20 -14 -14 -5 12 4 9 9 14 11 11 3 -2 0 -13 -6 -23z
m3376 -133 c14 -58 52 -177 85 -265 33 -88 89 -243 125 -345 76 -216 275 -747
339 -903 129 -316 249 -498 388 -589 l59 -38 -39 0 c-21 0 -56 -3 -76 -6 -34
-6 -38 -4 -38 14 0 12 -9 26 -19 32 -27 14 -134 12 -286 -5 -113 -13 -201 -32
-570 -123 l-70 -17 -3 -38 -3 -38 38 5 c30 4 33 4 13 -3 -58 -20 -60 -18 -58
67 1 45 4 67 8 52 l6 -25 9 25 c4 14 12 28 18 31 6 4 7 15 2 25 -12 29 -15
557 -4 571 7 8 6 14 -3 20 -17 10 -17 65 0 76 19 13 14 27 -10 27 -17 0 -19 3
-10 12 7 7 8 17 2 29 -8 14 -6 19 10 24 25 8 26 25 3 25 -14 0 -18 9 -18 40 0
35 2 40 22 40 14 0 23 6 23 15 0 9 -9 15 -22 15 -19 0 -23 5 -22 31 0 18 8 35
17 41 23 12 21 28 -3 28 -16 0 -20 7 -20 35 0 21 6 37 16 43 19 11 10 34 -10
26 -9 -3 -13 4 -14 25 0 21 5 30 19 34 24 7 25 27 0 27 -15 0 -18 7 -17 40 0
31 5 40 18 40 10 0 18 5 18 10 0 6 -8 10 -18 10 -15 0 -18 8 -17 42 1 35 5 43
24 48 31 7 31 24 1 28 -21 2 -25 8 -24 34 0 17 8 34 17 40 21 11 22 32 2 24
-21 -8 -20 30 1 42 9 5 14 15 10 21 -4 6 -12 9 -17 6 -5 -4 -9 8 -9 26 l0 32
23 -20 c32 -29 54 -34 71 -17 21 20 9 44 -25 51 -35 7 -45 19 -24 27 19 7 20
56 2 80 -13 17 -18 18 -68 6 -63 -16 -81 -33 -73 -69 10 -41 29 -57 49 -41 22
18 26 10 19 -43 -4 -30 -12 -47 -20 -47 -8 0 -14 -4 -14 -10 0 -5 7 -10 15
-10 23 0 19 -47 -5 -55 -11 -3 -20 -11 -20 -16 0 -6 9 -8 20 -4 18 6 19 3 14
-27 -4 -18 -10 -37 -15 -42 -4 -5 -3 -16 3 -26 8 -12 8 -29 1 -56 -5 -22 -9
-63 -9 -92 1 -28 -2 -52 -6 -52 -5 0 -7 -42 -7 -92 2 -71 4 -84 9 -53 l7 40 2
-44 c1 -41 0 -43 -24 -39 -27 6 -35 -9 -10 -18 9 -4 16 -20 16 -38 l1 -31 8
30 8 30 1 -31 c1 -25 -4 -33 -21 -39 -13 -3 -18 -8 -13 -11 6 -2 9 -63 8 -156
0 -92 2 -139 7 -118 l7 35 2 -36 c1 -31 -3 -38 -24 -43 -14 -4 -25 -10 -25
-15 0 -5 8 -7 18 -5 14 4 17 -2 17 -43 0 -37 -4 -48 -17 -51 -10 -2 -18 -8
-18 -13 0 -5 6 -8 13 -7 20 5 22 -101 3 -108 -9 -3 -16 -10 -16 -15 0 -4 7 -6
15 -3 12 5 15 -1 13 -27 -2 -19 -7 -38 -13 -42 -6 -6 -6 -10 3 -14 6 -2 12
-12 12 -21 0 -15 -2 -15 -10 -2 -7 11 -10 3 -10 -31 0 -25 -6 -51 -12 -58 -10
-11 -10 -14 0 -18 7 -3 12 -22 12 -48 0 -25 -5 -46 -12 -49 -10 -3 -8 -9 5
-19 9 -8 17 -18 17 -22 0 -4 7 -13 17 -20 18 -13 9 -39 -12 -31 -7 2 -15 -3
-18 -13 -3 -13 -33 -24 -123 -45 -225 -53 -489 -116 -526 -126 -70 -20 -208
-82 -290 -131 -45 -27 -83 -47 -85 -45 -2 2 27 54 64 117 68 114 253 493 337
690 24 57 78 176 119 264 73 156 328 766 386 922 16 43 59 146 96 228 70 155
164 402 186 490 8 31 15 42 17 30 2 -11 15 -67 29 -125z m-3396 83 c-12 -20
-14 -14 -5 12 4 9 9 14 11 11 3 -2 0 -13 -6 -23z m3277 -18 c-12 -24 -23 -43
-26 -41 -4 5 36 86 43 86 3 0 -5 -20 -17 -45z m-3327 -102 c-12 -20 -14 -14
-5 12 4 9 9 14 11 11 3 -2 0 -13 -6 -23z m3265 -30 c-8 -15 -15 -25 -16 -21 0
12 23 58 27 54 3 -2 -2 -17 -11 -33z m-3295 -40 c-12 -20 -14 -14 -5 12 4 9 9
14 11 11 3 -2 0 -13 -6 -23z m3260 -40 c-12 -20 -14 -14 -5 12 4 9 9 14 11 11
3 -2 0 -13 -6 -23z m-3280 -10 c-12 -20 -14 -14 -5 12 4 9 9 14 11 11 3 -2 0
-13 -6 -23z m3260 -40 c-12 -20 -14 -14 -5 12 4 9 9 14 11 11 3 -2 0 -13 -6
-23z m-3290 -30 c-12 -20 -14 -14 -5 12 4 9 9 14 11 11 3 -2 0 -13 -6 -23z
m3260 -40 c-12 -20 -14 -14 -5 12 4 9 9 14 11 11 3 -2 0 -13 -6 -23z m-3290
-30 c-12 -20 -14 -14 -5 12 4 9 9 14 11 11 3 -2 0 -13 -6 -23z m3260 -40 c-12
-20 -14 -14 -5 12 4 9 9 14 11 11 3 -2 0 -13 -6 -23z m-3290 -30 c-12 -20 -14
-14 -5 12 4 9 9 14 11 11 3 -2 0 -13 -6 -23z m3260 -40 c-12 -20 -14 -14 -5
12 4 9 9 14 11 11 3 -2 0 -13 -6 -23z m-3290 -30 c-12 -20 -14 -14 -5 12 4 9
9 14 11 11 3 -2 0 -13 -6 -23z m3260 -40 c-12 -20 -14 -14 -5 12 4 9 9 14 11
11 3 -2 0 -13 -6 -23z m-3295 -40 c-8 -15 -15 -25 -16 -21 0 12 23 58 27 54 3
-2 -2 -17 -11 -33z m3265 -30 c-12 -20 -14 -14 -5 12 4 9 9 14 11 11 3 -2 0
-13 -6 -23z m-30 -70 c-12 -20 -14 -14 -5 12 4 9 9 14 11 11 3 -2 0 -13 -6
-23z m-40 -90 c-12 -20 -14 -14 -5 12 4 9 9 14 11 11 3 -2 0 -13 -6 -23z
m-3296 -13 c-9 -16 -18 -30 -21 -30 -2 0 2 14 11 30 9 17 18 30 21 30 2 0 -2
-13 -11 -30z m3246 -97 c-11 -21 -20 -35 -21 -31 0 12 33 78 38 74 2 -2 -6
-21 -17 -43z m-3290 20 c-5 -10 -17 -27 -26 -38 -16 -19 -17 -19 -3 5 26 46
29 50 34 50 3 0 0 -8 -5 -17z m5283 -86 c66 -65 90 -130 91 -237 0 -41 -3 -90
-8 -109 l-7 -34 21 19 c27 24 69 106 70 136 2 64 14 60 52 -15 49 -99 64 -171
48 -242 -7 -30 -16 -57 -20 -59 -4 -3 -23 -1 -42 3 -19 4 -44 4 -56 0 -15 -6
-26 -2 -40 13 -30 34 -93 58 -157 58 l-59 0 -67 -69 -66 -69 -22 32 c-50 75
-55 148 -16 266 28 84 44 102 44 48 0 -18 5 -51 12 -73 l11 -40 8 45 c5 25 32
92 61 150 42 85 53 117 56 168 5 78 16 79 86 9z m-5394 -97 c-6 -11 -13 -20
-16 -20 -2 0 0 9 6 20 6 11 13 20 16 20 2 0 0 -9 -6 -20z m3747 -42 c-3 -8 -6
-5 -6 6 -1 11 2 17 5 13 3 -3 4 -12 1 -19z m-3787 -28 c-6 -11 -13 -20 -16
-20 -2 0 0 9 6 20 6 11 13 20 16 20 2 0 0 -9 -6 -20z m-45 -80 c-9 -16 -18
-30 -21 -30 -2 0 2 14 11 30 9 17 18 30 21 30 2 0 -2 -13 -11 -30z m3326 -17
c-12 -20 -14 -14 -5 12 4 9 9 14 11 11 3 -2 0 -13 -6 -23z m-3361 -43 c-6 -11
-13 -20 -16 -20 -2 0 0 9 6 20 6 11 13 20 16 20 2 0 0 -9 -6 -20z m3321 -47
c-12 -20 -14 -14 -5 12 4 9 9 14 11 11 3 -2 0 -13 -6 -23z m-3351 -3 c-6 -11
-13 -20 -16 -20 -2 0 0 9 6 20 6 11 13 20 16 20 2 0 0 -9 -6 -20z m3321 -67
c-12 -20 -14 -14 -5 12 4 9 9 14 11 11 3 -2 0 -13 -6 -23z m576 -45 c-2 -13
-4 -3 -4 22 0 25 2 35 4 23 2 -13 2 -33 0 -45z m-3997 -38 c-11 -16 -26 -33
-32 -36 -7 -4 1 9 16 29 34 44 46 50 16 7z m4000 -45 c0 -25 -3 -45 -8 -45 -4
0 -6 20 -4 45 2 25 6 45 8 45 2 0 4 -20 4 -45z m-629 8 c-12 -20 -14 -14 -5
12 4 9 9 14 11 11 3 -2 0 -13 -6 -23z m-3457 -73 c-26 -33 -54 -66 -63 -72 -8
-7 11 20 43 60 32 39 60 72 63 72 2 0 -17 -27 -43 -60z m3437 23 c-12 -20 -14
-14 -5 12 4 9 9 14 11 11 3 -2 0 -13 -6 -23z m696 -65 c-2 -13 -4 -5 -4 17 -1
22 1 32 4 23 2 -10 2 -28 0 -40z m-726 -5 c-12 -20 -14 -14 -5 12 4 9 9 14 11
11 3 -2 0 -13 -6 -23z m-20 -50 c-12 -20 -14 -14 -5 12 4 9 9 14 11 11 3 -2 0
-13 -6 -23z m-3461 3 c0 -2 -8 -10 -17 -17 -16 -13 -17 -12 -4 4 13 16 21 21
21 13z m4220 0 c0 -3 -4 -8 -10 -11 -5 -3 -10 -1 -10 4 0 6 5 11 10 11 6 0 10
-2 10 -4z m-4260 -29 c0 -2 -10 -12 -22 -23 l-23 -19 19 23 c18 21 26 27 26
19z m4254 -39 c7 -5 5 -8 -6 -8 -13 0 -18 7 -17 28 1 21 2 22 6 7 3 -11 10
-23 17 -27z m-793 -25 c-12 -20 -14 -14 -5 12 4 9 9 14 11 11 3 -2 0 -13 -6
-23z m-3511 7 c0 -5 -7 -10 -16 -10 -8 0 -12 5 -9 10 3 6 10 10 16 10 5 0 9
-4 9 -10z m107 -6 c-3 -3 -12 -4 -19 -1 -8 3 -5 6 6 6 11 1 17 -2 13 -5z m40
-10 c-3 -3 -12 -4 -19 -1 -8 3 -5 6 6 6 11 1 17 -2 13 -5z m50 -10 c-3 -3 -12
-4 -19 -1 -8 3 -5 6 6 6 11 1 17 -2 13 -5z m40 -10 c-3 -3 -12 -4 -19 -1 -8 3
-5 6 6 6 11 1 17 -2 13 -5z m50 -10 c-3 -3 -12 -4 -19 -1 -8 3 -5 6 6 6 11 1
17 -2 13 -5z m40 -10 c-3 -3 -12 -4 -19 -1 -8 3 -5 6 6 6 11 1 17 -2 13 -5z
m40 -10 c-3 -3 -12 -4 -19 -1 -8 3 -5 6 6 6 11 1 17 -2 13 -5z m3099 -41 c-8
-15 -15 -25 -16 -21 0 12 23 58 27 54 3 -2 -2 -17 -11 -33z m811 -20 c-3 -10
-5 -2 -5 17 0 19 2 27 5 18 2 -10 2 -26 0 -35z m-3770 21 c-3 -3 -12 -4 -19
-1 -8 3 -5 6 6 6 11 1 17 -2 13 -5z m3791 -107 c12 -3 10 -5 -5 -6 -20 -1 -23
4 -22 32 2 29 2 29 6 5 2 -15 12 -29 21 -31z m-1017 -273 c-71 -143 -130 -256
-130 -252 -1 11 253 518 257 514 2 -2 -55 -120 -127 -262z m1006 154 c-3 -7
-5 -2 -5 12 0 14 2 19 5 13 2 -7 2 -19 0 -25z m-3137 2 c8 -5 11 -10 5 -10 -5
0 -17 5 -25 10 -8 5 -10 10 -5 10 6 0 17 -5 25 -10z m130 -50 c8 -5 11 -10 5
-10 -5 0 -17 5 -25 10 -8 5 -10 10 -5 10 6 0 17 -5 25 -10z m3023 3 c-7 -2
-14 -19 -14 -36 -1 -25 -3 -27 -6 -9 -6 30 3 52 19 51 10 0 10 -2 1 -6z
m-2943 -35 c10 -6 7 -7 -10 -2 -14 3 -32 11 -40 16 -10 6 -7 7 10 2 14 -3 32
-11 40 -16z m2870 -23 c0 -25 -3 -45 -7 -45 -5 0 -8 20 -8 45 0 25 3 45 8 45
4 0 7 -20 7 -45z m-2765 -13 c-3 -3 -11 0 -18 7 -9 10 -8 11 6 5 10 -3 15 -9
12 -12z m42 -8 c-3 -3 -12 -4 -19 -1 -8 3 -5 6 6 6 11 1 17 -2 13 -5z m2800 0
c-3 -3 -12 -4 -19 -1 -8 3 -5 6 6 6 11 1 17 -2 13 -5z m911 -11 c-10 -2 -28
-2 -40 0 -13 2 -5 4 17 4 22 1 32 -1 23 -4z m-3641 -9 c-3 -3 -12 -4 -19 -1
-8 3 -5 6 6 6 11 1 17 -2 13 -5z m3526 -1 c-7 -2 -19 -2 -25 0 -7 3 -2 5 12 5
14 0 19 -2 13 -5z m-3486 -9 c-3 -3 -12 -4 -19 -1 -8 3 -5 6 6 6 11 1 17 -2
13 -5z m3406 -1 c-7 -2 -19 -2 -25 0 -7 3 -2 5 12 5 14 0 19 -2 13 -5z m-70
-10 c-7 -2 -19 -2 -25 0 -7 3 -2 5 12 5 14 0 19 -2 13 -5z m-46 -9 c-3 -3 -12
-4 -19 -1 -8 3 -5 6 6 6 11 1 17 -2 13 -5z m-50 -10 c-3 -3 -12 -4 -19 -1 -8
3 -5 6 6 6 11 1 17 -2 13 -5z m-3110 -10 c-3 -3 -12 -4 -19 -1 -8 3 -5 6 6 6
11 1 17 -2 13 -5z m3030 -10 c-3 -3 -12 -4 -19 -1 -8 3 -5 6 6 6 11 1 17 -2
13 -5z m-87 -24 c-34 -11 -60 -11 -35 0 11 5 29 8 40 8 16 0 15 -2 -5 -8z
m-67 -17 c-7 -2 -19 -2 -25 0 -7 3 -2 5 12 5 14 0 19 -2 13 -5z m-46 -9 c-3
-3 -12 -4 -19 -1 -8 3 -5 6 6 6 11 1 17 -2 13 -5z m-44 -11 c-7 -2 -19 -2 -25
0 -7 3 -2 5 12 5 14 0 19 -2 13 -5z m-2533 -13 c18 -12 2 -12 -25 0 -13 6 -15
9 -5 9 8 0 22 -4 30 -9z m2487 4 c-3 -3 -12 -4 -19 -1 -8 3 -5 6 6 6 11 1 17
-2 13 -5z m-57 -14 c-34 -11 -60 -11 -35 0 11 5 29 8 40 8 16 0 15 -2 -5 -8z
m-2383 -6 c-3 -3 -12 -4 -19 -1 -8 3 -5 6 6 6 11 1 17 -2 13 -5z m130 -40 c-3
-3 -12 -4 -19 -1 -8 3 -5 6 6 6 11 1 17 -2 13 -5z m2030 -10 c-3 -3 -12 -4
-19 -1 -8 3 -5 6 6 6 11 1 17 -2 13 -5z m-1960 -10 c-3 -3 -12 -4 -19 -1 -8 3
-5 6 6 6 11 1 17 -2 13 -5z m1880 -10 c-3 -3 -12 -4 -19 -1 -8 3 -5 6 6 6 11
1 17 -2 13 -5z m-1770 -20 c-3 -3 -12 -4 -19 -1 -8 3 -5 6 6 6 11 1 17 -2 13
-5z m1683 -4 c-34 -11 -60 -11 -35 0 11 5 29 8 40 8 16 0 15 -2 -5 -8z m-1613
-16 c-3 -3 -12 -4 -19 -1 -8 3 -5 6 6 6 11 1 17 -2 13 -5z m1550 0 c-3 -3 -12
-4 -19 -1 -8 3 -5 6 6 6 11 1 17 -2 13 -5z m-1480 -20 c-3 -3 -12 -4 -19 -1
-8 3 -5 6 6 6 11 1 17 -2 13 -5z m1393 -4 c-34 -11 -60 -11 -35 0 11 5 29 8
40 8 16 0 15 -2 -5 -8z m-63 -16 c-3 -3 -12 -4 -19 -1 -8 3 -5 6 6 6 11 1 17
-2 13 -5z m-1230 -10 c-3 -3 -12 -4 -19 -1 -8 3 -5 6 6 6 11 1 17 -2 13 -5z
m1190 0 c-3 -3 -12 -4 -19 -1 -8 3 -5 6 6 6 11 1 17 -2 13 -5z m-666 -31 c-12
-20 -14 -14 -5 12 4 9 9 14 11 11 3 -2 0 -13 -6 -23z m626 21 c-3 -3 -12 -4
-19 -1 -8 3 -5 6 6 6 11 1 17 -2 13 -5z m-1080 -10 c-3 -3 -12 -4 -19 -1 -8 3
-5 6 6 6 11 1 17 -2 13 -5z m1040 0 c-3 -3 -12 -4 -19 -1 -8 3 -5 6 6 6 11 1
17 -2 13 -5z m-50 -10 c-3 -3 -12 -4 -19 -1 -8 3 -5 6 6 6 11 1 17 -2 13 -5z
m-920 -10 c-3 -3 -12 -4 -19 -1 -8 3 -5 6 6 6 11 1 17 -2 13 -5z m828 -14
c-11 -5 -27 -9 -35 -9 -9 0 -8 4 5 9 11 5 27 9 35 9 9 0 8 -4 -5 -9z m-78 -16
c-3 -3 -12 -4 -19 -1 -8 3 -5 6 6 6 11 1 17 -2 13 -5z m-544 -102 c20 -22 37
-45 37 -51 0 -7 5 -9 10 -6 6 3 10 -2 9 -12 0 -13 -9 -7 -32 22 -18 22 -52 60
-77 84 -29 29 -35 37 -15 23 17 -11 47 -38 68 -60z m80 53 c-3 -9 -8 -14 -10
-11 -3 3 -2 9 2 15 9 16 15 13 8 -4z m337 5 c-8 -5 -19 -10 -25 -10 -5 0 -3 5
5 10 8 5 20 10 25 10 6 0 3 -5 -5 -10z m-40 -15 c0 -2 -13 -11 -30 -20 -38
-19 -40 -11 -2 9 31 17 32 18 32 11z m-243 -27 c-3 -8 -6 -5 -6 6 -1 11 2 17
5 13 3 -3 4 -12 1 -19z m-70 -45 c-3 -10 -5 -4 -5 12 0 17 2 24 5 18 2 -7 2
-21 0 -30z m242 32 c-5 -4 -104 -69 -138 -90 -9 -5 -12 -4 -7 3 4 6 37 29 74
52 62 37 83 47 71 35z m-182 -27 c-3 -8 -6 -5 -6 6 -1 11 2 17 5 13 3 -3 4
-12 1 -19z m-10 -60 c-3 -7 -5 -2 -5 12 0 14 2 19 5 13 2 -7 2 -19 0 -25z m11
-37 c-13 -15 -25 -27 -27 -25 -2 2 1 10 7 17 7 8 8 18 4 22 -4 5 -2 5 5 1 6
-3 14 -2 18 4 3 5 9 10 11 10 3 0 -5 -13 -18 -29z"/>
<path d="M3285 4116 c-43 -19 -113 -98 -141 -161 -31 -67 -57 -199 -49 -247 4
-21 17 -54 31 -73 l24 -35 -145 -293 c-121 -244 -202 -402 -312 -610 -8 -16
-12 -38 -9 -52 10 -38 243 -193 358 -237 62 -23 671 -171 773 -187 101 -16
352 -33 375 -26 11 3 28 18 38 33 26 37 241 576 313 785 56 162 61 172 93 189
55 28 86 81 140 242 36 108 36 193 0 236 -51 59 -119 79 -334 95 -122 9 -388
62 -407 80 -8 9 -33 25 -56 36 -38 20 -42 20 -74 5 l-33 -16 -111 75 c-109 73
-257 141 -359 164 -58 14 -79 13 -115 -3z m699 -269 c18 -13 17 -15 -13 -36
-40 -29 -77 -93 -92 -159 -13 -55 -17 -58 -78 -46 -38 8 -40 30 -12 103 43
114 137 180 195 138z m-217 -319 c-2 -13 -4 -5 -4 17 -1 22 1 32 4 23 2 -10 2
-28 0 -40z m89 -64 c-11 -29 -86 -3 -86 30 0 6 7 0 16 -12 8 -12 26 -22 40
-22 23 0 24 3 26 63 l2 62 3 -54 c2 -29 2 -60 -1 -67z m329 -1213 c3 -5 2 -12
-3 -15 -5 -3 -9 1 -9 9 0 17 3 19 12 6z"/>
<path d="M2785 3753 c-54 -149 -147 -359 -246 -552 -54 -107 -99 -200 -99
-208 0 -98 218 359 339 711 23 65 40 121 38 123 -2 2 -17 -32 -32 -74z"/>
<path d="M5168 3552 c-135 -148 -238 -270 -238 -283 0 -21 20 -4 89 74 40 45
123 132 183 194 75 76 109 117 105 128 -4 8 -10 15 -14 15 -4 -1 -60 -58 -125
-128z"/>
<path d="M2886 3655 c-9 -26 -7 -32 5 -12 6 10 9 21 6 23 -2 3 -7 -2 -11 -11z"/>
<path d="M2808 3487 c-37 -73 -119 -221 -183 -330 -63 -110 -112 -203 -109
-208 16 -26 41 8 132 184 99 189 236 476 230 483 -2 1 -33 -57 -70 -129z"/>
<path d="M5258 3483 c-190 -207 -618 -827 -590 -855 6 -6 48 47 125 164 125
189 264 375 425 567 96 115 115 151 79 151 -7 0 -25 -12 -39 -27z"/>
<path d="M5418 3434 c-134 -146 -414 -549 -559 -801 -135 -236 -393 -763 -380
-776 7 -7 14 -7 20 -1 5 5 53 97 107 204 268 536 398 739 843 1319 47 61 48
66 21 81 -16 9 -25 5 -52 -26z"/>
</g>
</svg>
